<svg width="129" height="140" viewBox="0 0 129 140" fill="none" xmlns="http://www.w3.org/2000/svg">
<path d="M64.3999 140C51.9329 140.021 39.73 136.425 29.2847 129.653C19.1324 123.077 11.0439 113.792 5.94341 102.858C2.44777 95.3642 0.456523 87.263 0.0814634 79.0095C0.0268167 78.5292 -0.00038017 78.0463 4.01359e-06 77.563V24.5097C-0.000615795 21.2889 0.636867 18.0996 1.876 15.1241C3.11512 12.1487 4.93159 9.44545 7.2215 7.16909C9.51141 4.89274 12.2299 3.08788 15.2213 1.85775C18.2128 0.627617 21.4187 -0.00365675 24.6556 3.1009e-05H104.144C107.382 -0.00509437 110.588 0.625198 113.58 1.85482C116.572 3.08444 119.291 4.88924 121.582 7.16589C123.872 9.44253 125.688 12.1463 126.927 15.1224C128.165 18.0985 128.802 21.2885 128.8 24.5097V77.563C128.802 78.0452 128.776 78.5271 128.723 79.0064C128.155 91.3224 124.007 103.21 116.781 113.225C109.719 123.035 100.021 130.666 88.8002 135.244C81.0567 138.399 72.7674 140.015 64.3999 140ZM44.4111 87.0635C43.3265 87.0629 42.2652 87.3762 41.3565 87.9653C40.4479 88.5544 39.731 89.3938 39.2935 90.3813C38.8559 91.3687 38.7165 92.4614 38.8923 93.5263C39.068 94.5912 39.5513 95.5822 40.2833 96.3785C43.7 99.9911 47.8329 102.859 52.4206 104.801C57.0082 106.743 61.9509 107.717 66.9361 107.661C71.9136 107.716 76.8487 106.745 81.4304 104.809C86.0122 102.873 90.1413 100.014 93.5577 96.4113C94.5594 95.3232 95.0857 93.8837 95.0208 92.4096C94.9558 90.9354 94.305 89.5473 93.2115 88.5505C92.118 87.5538 90.6713 87.0302 89.1898 87.0948C87.7083 87.1594 86.3132 87.8069 85.3115 88.895C82.9436 91.3603 80.0888 93.3114 76.9265 94.6258C73.7642 95.9403 70.3628 96.5895 66.9361 96.5329C63.5043 96.5894 60.0979 95.9375 56.932 94.6184C53.7661 93.2992 50.9093 91.3414 48.542 88.8685C48.0165 88.2995 47.378 87.8453 46.6669 87.5346C45.9558 87.2239 45.1877 87.0635 44.4111 87.0635ZM97.7513 52.3566C99.1944 52.2735 100.622 52.6875 101.795 53.5287C102.362 54.0271 102.806 54.6493 103.091 55.3466C103.377 56.044 103.497 56.7977 103.441 57.5487V77.881C103.442 78.6542 103.752 79.3953 104.301 79.9418C104.851 80.4883 105.596 80.7954 106.373 80.7958H111.109C111.886 80.795 112.631 80.4877 113.181 79.9413C113.73 79.395 114.04 78.6541 114.042 77.881V56.5418C114.042 44.2387 104.229 42.9106 100.01 42.9106H82.6218V77.881C82.623 78.6542 82.9325 79.3953 83.4823 79.9418C84.0321 80.4883 84.7772 80.7954 85.5543 80.7958H90.2899C91.0669 80.795 91.8119 80.4877 92.3615 79.9413C92.9112 79.395 93.2208 78.6541 93.2225 77.881V54.9924C93.1961 54.5851 93.2875 54.1788 93.4861 53.8216C93.6846 53.4644 93.9818 53.1713 94.3425 52.977C95.4092 52.4912 96.5809 52.2779 97.7513 52.3566ZM66.5101 42.8903C65.5545 42.8903 64.638 43.2681 63.9623 43.9404C63.2866 44.6127 62.907 45.5246 62.907 46.4754V77.2138C62.907 78.1646 63.2866 79.0765 63.9623 79.7489C64.638 80.4212 65.5545 80.7989 66.5101 80.7989H69.9079C70.8615 80.7989 71.7763 80.4227 72.4517 79.7527C73.1271 79.0827 73.508 78.1737 73.5109 77.2247C73.5187 71.8486 73.5594 58.0959 73.7521 46.53C73.759 46.0549 73.6708 45.5832 73.4928 45.1422C73.3148 44.7013 73.0505 44.3 72.7153 43.9616C72.38 43.6233 71.9805 43.3546 71.54 43.1712C71.0994 42.9878 70.6266 42.8934 70.1491 42.8935L66.5101 42.8903ZM45.6987 23.0694C44.9295 23.0698 44.1919 23.3738 43.6477 23.9147C43.1035 24.4556 42.7972 25.1893 42.796 25.9546V77.9106C42.7972 78.6759 43.1035 79.4096 43.6477 79.9505C44.1919 80.4914 44.9295 80.7954 45.6987 80.7958H50.4156C51.1847 80.7954 51.9224 80.4914 52.4666 79.9505C53.0108 79.4096 53.3171 78.6759 53.3183 77.9106V52.1243C53.3183 45.1303 53.3826 39.3427 53.4515 33.2074V33.1654C53.4781 30.7883 53.5032 28.4502 53.5267 25.9811C53.5296 25.6 53.4567 25.2222 53.3122 24.8692C53.1678 24.5163 52.9546 24.1953 52.6849 23.9246C52.4153 23.654 52.0945 23.4391 51.741 23.2923C51.3876 23.1456 51.0085 23.0698 50.6255 23.0694H45.6987ZM29.9348 42.9807C17.9273 42.9807 10.7589 49.9483 10.7589 61.6186C10.7589 73.6536 17.7488 80.5558 29.9348 80.5558C31.1722 80.5529 32.4085 80.4821 33.638 80.3438C34.531 80.2431 35.3551 79.8178 35.9521 79.1495C36.5492 78.4812 36.8771 77.617 36.8729 76.7228V75.083C36.8696 74.1145 36.4803 73.1869 35.7904 72.5037C35.1006 71.8204 34.1665 71.4374 33.1931 71.4387H33.0114C32.2626 71.4745 31.4606 71.4917 30.5583 71.4917C29.444 71.5622 28.3274 71.3996 27.2802 71.0144C26.233 70.6291 25.2786 70.0297 24.4786 69.2549C22.7599 67.1196 21.9235 64.4129 22.1397 61.6856C22.11 60.1541 22.316 58.627 22.7507 57.1575C23.081 56.0518 23.6657 55.0378 24.4582 54.1959C25.1879 53.4593 26.0845 52.9077 27.0727 52.5873C28.1491 52.2471 29.2739 52.0828 30.4032 52.1009C31.4136 52.1009 32.2203 52.1274 32.9409 52.182C33.0365 52.182 33.1321 52.1929 33.2276 52.1929C34.1965 52.1896 35.1246 51.8041 35.8082 51.1209C36.4919 50.4377 36.8753 49.5127 36.8745 48.5486V46.7716C36.8831 45.8728 36.5541 45.0031 35.952 44.333C35.3498 43.6629 34.5179 43.2407 33.6192 43.1491C32.3947 43.0317 31.165 42.9755 29.9348 42.9807ZM62.907 29.8094V39.4206H73.8038C73.8709 37.639 73.3836 35.8802 72.4084 34.3846C71.4333 32.8889 70.0178 31.7293 68.3554 31.0642C66.6305 30.3213 64.7845 29.8956 62.907 29.8078V29.8094Z" fill="#FFFFFF"/>
</svg>
